HIERARCHY
ROOT pelvis
{
	OFFSET 0.000000 0.000000 0.683398
	CHANNELS 6 Xposition Yposition Zposition Xrotation Yrotation Zrotation
	JOINT spine
	{
		OFFSET 0.000000 0.000000 0.000000
		CHANNELS 6 Xposition Yposition Zposition Xrotation Yrotation Zrotation
		JOINT spine.001
		{
			OFFSET 0.000000 -0.010624 0.202717
			CHANNELS 3 Xrotation Yrotation Zrotation
			JOINT neck
			{
				OFFSET 0.000000 0.024739 0.201482
				CHANNELS 6 Xposition Yposition Zposition Xrotation Yrotation Zrotation
				JOINT face
				{
					OFFSET 0.000000 0.002737 0.156783
					CHANNELS 6 Xposition Yposition Zposition Xrotation Yrotation Zrotation
					End Site
					{
						OFFSET 0.000000 -0.018659 -0.006625
					}
				}
			}
			JOINT shoulder.L
			{
				OFFSET 0.000000 0.024739 0.201482
				CHANNELS 6 Xposition Yposition Zposition Yrotation Xrotation Zrotation
				JOINT upper_arm.L
				{
					OFFSET 0.127209 0.000000 0.000000
					CHANNELS 6 Xposition Yposition Zposition Xrotation Yrotation Zrotation
					JOINT forearm.L
					{
						OFFSET 0.218660 0.000097 0.000806
						CHANNELS 6 Xposition Yposition Zposition Xrotation Yrotation Zrotation
						End Site
						{
							OFFSET 0.187538 -0.003184 -0.001108
						}
					}
				}
			}
			JOINT shoulder.R
			{
				OFFSET 0.000000 0.024739 0.201482
				CHANNELS 6 Xposition Yposition Zposition Yrotation Xrotation Zrotation
				JOINT upper_arm.R
				{
					OFFSET -0.127209 0.000000 0.000000
					CHANNELS 6 Xposition Yposition Zposition Xrotation Yrotation Zrotation
					JOINT forearm.R
					{
						OFFSET -0.220380 0.000097 0.000806
						CHANNELS 6 Xposition Yposition Zposition Xrotation Yrotation Zrotation
						End Site
						{
							OFFSET -0.189239 -0.003214 -0.001109
						}
					}
				}
			}
		}
	}
	JOINT pelvis.L
	{
		OFFSET 0.000000 0.000000 0.000000
		CHANNELS 6 Xposition Yposition Zposition Yrotation Xrotation Zrotation
		End Site
		{
			OFFSET 0.076649 0.000000 0.000000
		}
	}
	JOINT pelvis.R
	{
		OFFSET 0.000000 0.000000 0.000000
		CHANNELS 6 Xposition Yposition Zposition Yrotation Xrotation Zrotation
		End Site
		{
			OFFSET -0.076649 0.000000 0.000000
		}
	}
	JOINT thigh.L
	{
		OFFSET 0.076649 0.000000 0.000000
		CHANNELS 6 Xposition Yposition Zposition Xrotation Yrotation Zrotation
		JOINT shin.L
		{
			OFFSET 0.016524 0.000000 -0.315292
			CHANNELS 6 Xposition Yposition Zposition Xrotation Yrotation Zrotation
			JOINT foot.L
			{
				OFFSET 0.016092 0.000000 -0.307046
				CHANNELS 3 Xrotation Yrotation Zrotation
				End Site
				{
					OFFSET 0.014419 -0.147015 -0.061734
				}
			}
			JOINT heel.02.L
			{
				OFFSET 0.016092 0.000000 -0.307046
				CHANNELS 3 Xrotation Yrotation Zrotation
				End Site
				{
					OFFSET 0.066282 0.028975 -0.056814
				}
			}
		}
	}
	JOINT thigh.R
	{
		OFFSET -0.076649 0.000000 0.000000
		CHANNELS 6 Xposition Yposition Zposition Xrotation Yrotation Zrotation
		JOINT shin.R
		{
			OFFSET -0.016635 0.000000 -0.317420
			CHANNELS 6 Xposition Yposition Zposition Xrotation Yrotation Zrotation
			JOINT foot.R
			{
				OFFSET -0.015733 0.000000 -0.300209
				CHANNELS 3 Xrotation Yrotation Zrotation
				End Site
				{
					OFFSET -0.014422 -0.147047 -0.061748
				}
			}
			JOINT heel.02.R
			{
				OFFSET -0.015733 0.000000 -0.300209
				CHANNELS 3 Xrotation Yrotation Zrotation
				End Site
				{
					OFFSET -0.068873 0.028975 -0.061401
				}
			}
		}
	}
}
MOTION
Frames: 8
Frame Time: 0.041667
-0.002428 0.140317 0.673901 -0.000000 0.000000 19.890585 0.000000 0.000000 0.000000 -16.845132 5.849269 1.182801 9.660057 2.159790 17.887584 0.000000 0.024739 0.201482 15.678764 5.869189 31.101024 -0.000000 0.002737 0.156783 -5.719619 -0.000000 0.000004 0.000000 0.024739 0.201482 -4.537453 0.022050 0.556559 0.127209 0.000000 -0.000000 40.919093 72.386160 -53.974829 0.218660 0.000097 0.000806 -0.219168 -2.221105 -7.155693 0.000000 0.024739 0.201482 -4.480975 0.021505 0.549642 -0.127209 0.000000 -0.000000 14.140226 -68.608991 20.598928 -0.220380 0.000097 0.000806 1.519153 -12.306715 12.752719 0.000000 0.000000 0.000000 2.993605 -0.000000 -0.000009 0.000000 0.000000 0.000000 2.993559 -0.000000 0.000002 0.076544 0.000000 -0.004003 -7.346133 5.050056 -0.061269 0.016524 0.000000 -0.315292 -4.933372 -1.668165 -0.330321 14.073511 5.356449 -14.485604 -5.506850 38.714974 27.797492 -0.076544 0.000000 0.004003 -4.334510 -1.249025 0.180109 -0.016635 -0.000000 -0.317420 -0.208939 3.182352 0.016729 7.597016 5.838721 -18.668270 -25.532782 -56.518050 -45.373975 
-0.003639 0.140060 0.674277 -0.000000 0.000000 18.289208 0.000000 0.000000 0.000000 -17.028012 5.431245 1.107173 9.721688 1.958604 16.171622 -0.000000 0.024739 0.201482 15.236981 5.798046 28.010652 -0.000000 0.002737 0.156783 -4.467772 -0.000000 -0.000007 -0.000000 0.024739 0.201482 -4.288148 0.019688 0.525934 0.127209 0.000000 -0.000000 38.285321 72.683069 -50.467578 0.218660 0.000097 0.000806 -0.224090 -1.883879 -8.566477 -0.000000 0.024739 0.201482 -4.231619 0.019176 0.519046 -0.127209 0.000000 0.000000 15.857949 -69.009554 22.895679 -0.220380 0.000097 0.000806 1.229879 -10.805229 11.716020 0.000000 0.000000 0.000000 2.656356 0.000001 -0.000041 0.000000 0.000000 0.000000 2.656355 -0.000000 0.000002 0.076566 0.000000 -0.003552 -7.137043 4.818524 -0.074013 0.016524 -0.000000 -0.315292 -4.984167 -1.931447 -0.345138 13.552388 5.030472 -13.247980 -6.029034 39.293392 28.124713 -0.076566 0.000000 0.003552 -4.524716 -1.490891 0.178474 -0.016635 0.000000 -0.317420 -0.343799 3.129456 0.027368 7.200244 5.532650 -17.527619 -24.846007 -56.361679 -45.504028 
-0.004406 0.139797 0.674373 -0.000000 0.000000 17.085267 0.000000 0.000000 0.000000 -17.241581 5.041630 1.037448 9.778083 1.752565 14.429989 -0.000000 0.024739 0.201482 15.112509 5.555693 24.871989 0.000000 0.002737 0.156783 -3.622576 0.000001 -0.000011 -0.000000 0.024739 0.201482 -4.037126 0.017457 0.495269 0.127209 -0.000000 -0.000000 35.161807 73.420948 -46.004585 0.218660 0.000097 0.000806 -0.236066 -1.577906 -10.585003 -0.000000 0.024739 0.201482 -3.980645 0.016973 0.488342 -0.127209 -0.000000 -0.000000 17.370703 -69.631436 24.763549 -0.220380 0.000097 0.000806 0.994949 -9.380297 10.903921 0.000000 -0.000000 0.000000 2.357771 0.000000 -0.000012 0.000000 -0.000000 0.000000 2.357772 -0.000000 -0.000002 0.076584 -0.000000 -0.003153 -7.042376 4.698711 -0.080420 0.016524 -0.000000 -0.315292 -4.863822 -2.247453 -0.350158 13.011626 4.818203 -12.445346 -6.360075 39.620172 28.278175 -0.076584 -0.000000 0.003153 -4.552383 -1.598819 0.175281 -0.016635 0.000000 -0.317420 -0.663552 3.005766 0.052111 7.055013 5.259321 -16.674167 -24.251497 -56.217429 -45.580475 
-0.005004 0.139400 0.674060 -0.000000 0.000000 16.226416 0.000000 0.000000 -0.000000 -17.469005 4.773460 0.992084 9.827175 1.549790 12.729833 0.000000 0.024739 0.201482 15.130824 5.189338 22.576422 0.000000 0.002737 0.156783 -3.147969 -0.000000 -0.000003 0.000000 0.024739 0.201482 -3.805859 0.015518 0.466981 0.127209 0.000000 -0.000000 31.571347 74.310860 -40.889269 0.218660 0.000097 0.000806 -0.263438 -1.436768 -12.875887 0.000000 0.024739 0.201482 -3.749435 0.015062 0.460077 -0.127209 -0.000000 0.000000 17.612399 -70.443982 24.741100 -0.220380 0.000097 0.000806 0.843391 -8.117851 10.775850 0.000000 0.000000 0.000000 2.119130 -0.000000 0.000009 0.000000 0.000000 0.000000 2.119085 -0.000000 -0.000002 0.076596 0.000000 -0.002834 -7.000780 4.630598 -0.084126 0.016524 -0.000000 -0.315292 -4.693000 -2.560265 -0.350606 12.494307 4.693520 -11.971175 -6.532910 39.745042 28.284920 -0.076596 0.000000 0.002834 -4.468123 -1.619384 0.171231 -0.016635 0.000000 -0.317420 -1.100572 2.826952 0.084727 7.073046 5.044181 -16.097619 -23.673198 -56.023974 -45.437618 
-0.005740 0.139234 0.673458 -0.000000 0.000000 15.513719 0.000000 0.000000 0.000000 -17.615024 4.643708 0.971263 9.867661 1.357913 11.131172 -0.000000 0.024739 0.201482 14.934390 4.682519 21.104977 0.000000 0.002737 0.156783 -2.632038 0.000000 -0.000005 -0.000000 0.024739 0.201482 -3.648755 0.014258 0.447672 0.127209 -0.000000 0.000000 28.143697 75.239001 -36.020891 0.218660 0.000097 0.000806 -0.273707 -1.172654 -15.585286 -0.000000 0.024739 0.201482 -3.592221 0.013824 0.440751 -0.127209 -0.000000 0.000000 16.934957 -71.139275 23.512448 -0.220380 0.000097 0.000806 0.744297 -7.021776 11.197576 0.000000 0.000000 0.000000 1.933040 0.000000 -0.000003 0.000000 0.000000 0.000000 1.933084 -0.000000 0.000000 0.076605 0.000000 -0.002586 -7.022692 4.574987 -0.087812 0.016524 -0.000000 -0.315292 -4.475428 -2.857889 -0.345909 11.975797 4.601481 -11.621998 -6.649614 39.794304 28.231405 -0.076605 0.000000 0.002585 -4.452888 -1.647196 0.169567 -0.016635 -0.000000 -0.317420 -1.433116 2.677502 0.108471 7.157308 4.871782 -15.682399 -23.174955 -55.840789 -45.257131 
-0.006717 0.139827 0.672796 -0.000000 0.000000 14.738076 -0.000000 0.000000 -0.000000 -17.661990 4.540125 0.951524 9.897970 1.193627 9.770049 -0.000000 0.024739 0.201482 14.631083 4.055646 19.423610 0.000000 0.002737 0.156783 -1.975925 0.000001 -0.000010 -0.000000 0.024739 0.201482 -3.582908 0.013744 0.439616 0.127209 0.000000 0.000000 25.577476 76.147266 -32.314544 0.218660 0.000097 0.000806 -0.192043 -0.435155 -18.795694 -0.000000 0.024739 0.201482 -3.526481 0.013318 0.432675 -0.127209 -0.000000 0.000000 17.143601 -71.464051 23.660969 -0.220380 0.000097 0.000806 0.637946 -6.118859 11.157674 0.000000 0.000000 0.000000 1.734623 -0.000000 0.000015 0.000000 0.000000 0.000000 1.734622 -0.000000 -0.000002 0.076613 0.000000 -0.002320 -7.179548 4.497146 -0.094678 0.016524 -0.000000 -0.315292 -4.096405 -3.111255 -0.325604 11.444084 4.478512 -11.181212 -6.802453 39.888861 28.211710 -0.076613 0.000000 0.002320 -4.654482 -1.731278 0.173838 -0.016635 -0.000000 -0.317420 -1.519178 2.614309 0.114152 7.243259 4.708422 -15.290680 -22.728710 -55.706972 -45.225049 
-0.007674 0.141004 0.672235 -0.000000 0.000000 13.684587 -0.000000 0.000000 -0.000000 -17.709031 4.289862 0.900864 9.916963 1.078136 8.816901 -0.000000 0.024739 0.201482 14.569946 3.469341 16.647830 -0.000000 0.002737 0.156783 -1.412237 0.000001 0.000002 -0.000000 0.024739 0.201482 -3.525412 0.013313 0.432623 0.127209 -0.000000 -0.000000 23.745177 76.951718 -29.636440 0.218660 0.000097 0.000806 0.050348 0.858782 -22.190146 -0.000000 0.024739 0.201482 -3.468873 0.012890 0.425672 -0.127209 -0.000000 -0.000000 19.085097 -71.502901 26.274875 -0.220380 0.000097 0.000806 0.525440 -5.599786 9.948381 0.000000 0.000000 0.000000 1.420433 -0.000000 0.000003 0.000000 0.000000 0.000000 1.420389 -0.000000 -0.000002 0.076625 0.000000 -0.001900 -7.405693 4.373843 -0.105668 0.016524 -0.000000 -0.315292 -3.579996 -3.315659 -0.290890 10.895682 4.264138 -10.457495 -7.079206 40.122741 28.283566 -0.076625 -0.000000 0.001900 -5.024577 -1.858517 0.182101 -0.016635 -0.000000 -0.317420 -1.477817 2.605071 0.110926 7.269403 4.501928 -14.736591 -22.006420 -55.489058 -45.176975 
-0.008305 0.141782 0.671748 -0.000000 0.000000 12.191252 -0.000000 0.000000 0.000000 -17.831073 3.831959 0.808894 9.925479 1.021614 8.350978 0.000000 0.024739 0.201482 14.676584 3.012332 13.314666 0.000000 0.002737 0.156783 -1.032195 -0.000001 0.000005 0.000000 0.024739 0.201482 -3.392347 0.012332 0.416361 0.127209 0.000000 -0.000000 21.992267 77.645174 -27.160251 0.218660 0.000097 0.000806 0.419498 2.378336 -25.018447 0.000000 0.024739 0.201482 -3.335916 0.011922 0.409408 -0.127209 -0.000000 0.000000 21.365542 -71.582705 29.306675 -0.220380 0.000097 0.000806 0.460673 -5.692338 8.267490 0.000000 0.000000 0.000000 0.952011 0.000000 0.000047 0.000000 0.000000 0.000000 0.952056 -0.000000 0.000000 0.076638 0.000000 -0.001274 -7.468448 4.210135 -0.117281 0.016524 0.000000 -0.315292 -3.172064 -3.526667 -0.263537 10.304742 3.923114 -9.354023 -7.546668 40.537302 28.447482 -0.076638 0.000000 0.001274 -5.373800 -2.029791 0.186743 -0.016635 0.000000 -0.317420 -1.554026 2.601499 0.116597 7.224263 4.181216 -13.816799 -20.674204 -55.001830 -44.802455 
